<svg width="30" height="23" viewBox="0 0 30 23" fill="none" xmlns="http://www.w3.org/2000/svg">
<path d="M28.4211 19.1667V20.4444C28.4211 21.85 27 23 25.2632 23H3.15789C1.40526 23 0 21.85 0 20.4444V2.55556C0 1.15 1.40526 0 3.15789 0H25.2632C27 0 28.4211 1.15 28.4211 2.55556V3.83333H14.2105C12.4579 3.83333 11.0526 4.98333 11.0526 6.38889V16.6111C11.0526 18.0167 12.4579 19.1667 14.2105 19.1667H28.4211ZM14.2105 16.6111H30V6.38889H14.2105V16.6111ZM20.5263 13.4167C19.2158 13.4167 18.1579 12.5606 18.1579 11.5C18.1579 10.4394 19.2158 9.58333 20.5263 9.58333C21.8368 9.58333 22.8947 10.4394 22.8947 11.5C22.8947 12.5606 21.8368 13.4167 20.5263 13.4167Z" fill="#0B65C6"/>
</svg>
