<svg width="27" height="27" viewBox="0 0 27 27" fill="none" xmlns="http://www.w3.org/2000/svg">
<path d="M21 12C21.51 12 22.005 12.06 22.5 12.135V4.905L11.25 0L0 4.905V12.27C0 19.08 4.8 25.455 11.25 27C12.075 26.805 12.87 26.52 13.65 26.175C12.615 24.705 12 22.92 12 21C12 16.035 16.035 12 21 12Z" fill="#0B65C6"/>
<path d="M21 15C17.685 15 15 17.685 15 21C15 24.315 17.685 27 21 27C24.315 27 27 24.315 27 21C27 17.685 24.315 15 21 15ZM21 17.07C21.93 17.07 22.68 17.835 22.68 18.75C22.68 19.665 21.915 20.43 21 20.43C20.085 20.43 19.32 19.665 19.32 18.75C19.32 17.835 20.07 17.07 21 17.07ZM21 25.125C19.605 25.125 18.39 24.435 17.64 23.37C17.715 22.29 19.905 21.75 21 21.75C22.095 21.75 24.285 22.29 24.36 23.37C23.61 24.435 22.395 25.125 21 25.125Z" fill="#0B65C6"/>
</svg>
